<svg width="96" height="60" viewBox="0 0 96 60" fill="none" xmlns="http://www.w3.org/2000/svg">
<path d="M1.21376 5.35627C-0.404589 6.32728 -0.404585 8.67272 1.21376 9.64373L10.1409 15L1.21376 20.3563C-0.404589 21.3273 -0.404585 23.6727 1.21376 24.6437L10.1409 30L1.21376 35.3563C-0.404589 36.3273 -0.404585 38.6727 1.21376 39.6437L10.1409 45L1.21376 50.3563C-0.404589 51.3273 -0.404585 53.6727 1.21376 54.6437L10.1409 60H85.1409L94.068 54.6437C95.6863 53.6727 95.6863 51.3273 94.068 50.3563L85.1409 45L94.068 39.6437C95.6863 38.6727 95.6863 36.3273 94.068 35.3563L85.1409 30L94.068 24.6437C95.6863 23.6727 95.6863 21.3273 94.068 20.3563L85.1409 15L94.068 9.64373C95.6863 8.67272 95.6863 6.32728 94.068 5.35627L87.516 1.42507C85.9618 0.49258 84.1835 0 82.371 0H12.9107C11.0983 0 9.31991 0.49258 7.76575 1.42507L1.21376 5.35627Z" fill="#EEEBA7"/>
</svg>
